<?xml version="1.0" standalone="no"?>
<!DOCTYPE svg PUBLIC "-//W3C//DTD SVG 1.1//EN" "http://www.w3.org/Graphics/SVG/1.1/DTD/svg11.dtd" >
<svg xmlns="http://www.w3.org/2000/svg">
<metadata>Generated by IcoMoon</metadata>
<defs>
<font id="smartTorino" horiz-adv-x="1024">
<font-face units-per-em="1024" ascent="960" descent="-64" />
<missing-glyph horiz-adv-x="1024" />
<glyph unicode="&#x20;" horiz-adv-x="512" d="" />
<glyph unicode="&#xe600;" glyph-name="like-selected" d="M102.682 83.174c144.819-78.003 316.749-121.574 486.093-121.574 54.938 0 108.979 3.046 161.715 13.363 20.582 4.045 47.411 13.184 59.008 23.68 16.179 14.848 26.624 38.144 26.624 64.256 0 24.115-8.883 46.029-23.040 60.8h5.965c37.709 0 68.198 36.275 68.198 81.050 0 44.826-30.49 81.101-68.198 81.101h34.099c37.683 0 68.198 36.25 68.198 81.050 0 44.826-30.515 81.101-68.198 81.101 37.683 0 68.198 36.224 68.198 81.050 0 44.8-30.515 80.973-68.198 80.973h-305.971c-23.552 0-42.65 22.784-42.65 50.714l21.453 168.474c2.048 7.706 3.072 15.821 3.072 24.115 0 44.774-30.49 81.075-68.147 81.075-31.59 0-58.163-25.574-65.894-59.981l-2.867-11.597c-43.853-165.786-143.078-317.107-289.485-414.874v-364.774z" />
<glyph unicode="&#xe601;" glyph-name="like-unselected" d="M596.019-28.134c-187.674 0-380.749 40.653-543.642 114.458l-16.538 7.475v370.637l14.362 8.064c147.814 83.046 255.693 213.018 303.77 366.003l2.97 10.138c11.802 44.186 52.659 75.494 99.123 75.494 56.627 0 102.707-46.106 102.707-102.784 0-9.882-1.331-19.43-3.942-28.467l-22.784-150.554c0.845-9.472 8.781-16.947 18.432-16.947h334.848c56.678 0 102.784-46.080 102.784-102.733 0-29.363-12.365-55.91-32.205-74.65 19.814-18.739 32.205-45.312 32.205-74.675 0-39.578-22.477-74.010-55.373-91.187 11.392-16.563 18.048-36.608 18.048-58.163 0-42.368-25.779-78.848-62.464-94.566 4.275-11.418 6.528-23.629 6.528-36.096 0-32.077-14.592-61.773-40.064-81.459-23.168-17.664-68.378-25.856-77.21-27.315-52.506-8.653-110.182-12.672-181.555-12.672zM92.134 130.278c152.218-65.946 330.394-102.144 503.885-102.144 68.224 0 123.008 3.789 172.39 11.93 23.347 3.866 45.798 11.622 52.096 16.435 11.418 8.832 18.074 22.298 18.074 36.813 0 13.389-5.734 26.112-15.693 34.893l-55.936 49.254h81.075c25.651 0 46.515 20.864 46.515 46.515 0 25.677-20.864 46.566-46.515 46.566v56.269h37.325c25.651 0 46.515 20.864 46.515 46.49 0 25.677-20.864 46.566-46.515 46.566v56.294c25.651 0 46.515 20.864 46.515 46.49 0 25.6-20.864 46.464-46.515 46.464h-334.848c-41.242 0-74.778 33.587-74.778 74.854l0.307 4.224 24.474 159.488c1.331 4.173 2.022 8.755 2.022 13.67 0 25.626-20.838 46.49-46.438 46.49-21.043 0-39.526-14.157-44.928-34.381l-3.302-11.315c-50.995-162.176-162.739-300.083-315.725-390.451v-301.414z" />
<glyph unicode="&#xe602;" glyph-name="facebook" d="M593.075 610.125v96.512c0 43.622 9.6 65.562 77.286 65.562h84.838v162.202h-141.594c-173.517 0-230.81-79.616-230.81-216.090v-108.16h-113.997v-162.227h113.997v-486.323h210.253v486.323h142.874l19.277 162.227h-162.125z" />
<glyph unicode="&#xe603;" glyph-name="twitter" d="M998.4 749.978c-35.84-15.872-74.214-26.624-114.637-31.539 41.216 24.73 72.96 63.872 87.834 110.464-38.579-22.912-81.203-39.578-126.771-48.41-36.506 38.963-88.422 63.283-145.69 63.283-110.362 0-199.578-89.446-199.578-199.757 0-15.667 1.69-30.925 5.146-45.517-166.016 8.192-313.19 87.834-411.443 208.768-17.152-29.44-27.034-63.872-27.034-100.352 0-69.274 35.482-130.483 89.062-166.349-33.075 0.768-63.974 9.882-90.701 24.934 0-0.819 0-1.664 0-2.509 0-96.845 68.838-177.485 160.128-195.789-16.717-4.557-34.458-6.989-52.557-6.989-12.8 0-25.318 1.203-37.555 3.686 25.395-79.36 99.174-137.062 186.624-138.675-68.25-53.606-154.445-85.581-248.013-85.581-16.051 0-31.949 1.075-47.616 2.867 88.038-57.267 192.947-90.266 305.51-90.266 367.59 0 568.346 304.461 568.346 568.525 0 8.653-0.205 17.306-0.64 25.779 38.989 28.186 72.781 63.232 99.584 103.424z" />
<glyph unicode="&#xe604;" glyph-name="pinterest" d="M512.128 934.4c-268.518 0-486.298-217.779-486.298-486.272 0-199.142 119.885-370.125 291.149-445.466-1.254 33.843-0.179 74.547 8.525 111.565 9.318 39.45 62.515 265.062 62.515 265.062s-15.642 31.027-15.642 76.851c0 72.013 41.702 125.952 93.824 125.952 44.237 0 65.51-33.254 65.51-72.986 0-44.518-28.39-111.002-42.982-172.57-12.134-51.712 25.882-93.594 76.902-93.594 92.006 0 154.086 118.349 154.086 258.586 0 106.598-71.834 186.291-202.291 186.291-147.379 0-239.488-110.106-239.488-232.934 0-42.394 12.672-72.346 32.102-95.411 8.96-10.598 10.214-14.899 6.963-27.059-2.355-8.909-7.603-30.413-9.958-39.117-3.251-12.339-13.312-16.691-24.346-12.134-67.942 27.776-99.61 102.016-99.61 185.83 0 138.035 116.531 303.642 347.52 303.642 185.651 0 307.891-134.323 307.891-278.426 0-190.874-106.214-333.312-262.477-333.312-52.557 0-101.862 28.493-118.81 60.621 0 0-28.237-112-34.278-133.734-10.214-37.504-30.413-74.957-48.845-104.166 43.571-12.877 89.83-20.019 137.856-20.019 268.544 0 486.221 217.779 486.221 486.221 0.282 268.8-217.395 486.579-486.042 486.579z" />
<glyph unicode="&#xe605;" glyph-name="google-plus" d="M481.818 405.53l-39.552 29.747-0.154 0.256c-12.646 9.958-21.734 17.971-21.734 31.898 0 15.232 10.854 25.626 23.654 37.76l1.075 0.896c43.366 33.050 97.050 74.496 97.050 161.971 0 58.394-25.83 97.050-50.586 125.338h28.16l131.251 71.68h-289.946c-54.938 0-136.141-6.938-205.414-62.106l-0.154-0.717c-47.411-39.066-75.546-96.614-75.546-153.318 0-45.978 18.842-91.571 51.814-124.621 46.541-46.899 104.883-56.678 145.766-56.678 3.251 0 6.502 0 9.779 0.23-1.766-6.502-2.637-13.67-2.637-22.374 0-23.654 7.834-41.882 17.613-56.858-52.147-4.198-126.208-14.131-184.397-48.512-85.581-49.254-92.262-121.6-92.262-142.362 0-83.021 77.491-166.81 250.803-166.81 198.912 0 302.95 108.16 302.95 214.963 0 80.614-49.587 120.755-97.536 159.616zM209.536 700.211c0 29.056 6.502 50.995 20.173 67.098 14.106 17.178 39.475 28.416 62.976 28.416 43.213 0 71.45-32.538 87.731-59.93 19.942-33.613 32.358-78.362 32.358-116.403 0-10.675 0-43.392-22.195-64.691-15.206-14.515-40.576-24.755-62.054-24.755-44.544 0-72.755 31.898-88.371 58.624-22.63 38.682-30.618 82.995-30.618 111.642zM472.525 204.877c0-59.494-54.758-96.64-142.899-96.64-104.499 0-174.387 44.723-174.387 111.437 0 56.678 46.618 79.898 82.074 92.262 41.062 13.286 96.205 15.872 108.774 15.872 8.525 0 13.261 0 18.918-0.486 79.437-54.682 107.52-78.362 107.52-122.445zM829.056 695.68v169.37h-73.856v-169.37h-173.696v-73.882h173.696v-175.846h73.856v175.846h169.344v73.882z" />
<glyph unicode="&#xe606;" glyph-name="user" d="M512 448c70.528 0 127.667 57.267 127.667 127.667 0 70.554-57.139 127.667-127.667 127.667s-127.667-57.114-127.667-127.667c0-70.4 57.139-127.667 127.667-127.667zM512 384.154c-85.069 0-255.36-42.598-255.36-127.667v-63.821h510.72v63.821c0 85.069-170.291 127.667-255.36 127.667zM512-64c-282.317 0-512 229.683-512 512s229.683 512 512 512 512-229.683 512-512-229.683-512-512-512zM512 908.8c-254.080 0-460.8-206.72-460.8-460.8s206.72-460.8 460.8-460.8 460.8 206.72 460.8 460.8-206.72 460.8-460.8 460.8z" />
<glyph unicode="&#xe607;" glyph-name="where" d="M533.632-78.925h-43.366l-12.032 17.946c-6.426 9.574-158.874 238.259-286.234 563.507-0.538 1.28-1.024 2.56-1.459 3.763l-0.87 2.253c-14.72 39.040-22.17 80.026-22.17 121.83 0 189.978 154.573 344.525 344.525 344.525 189.926 0 344.474-154.573 344.474-344.525 0-41.728-7.373-82.304-21.862-120.627l-1.28-3.354c-0.41-1.254-0.973-2.842-1.638-4.429-127.078-324.685-279.603-553.395-286.029-562.97l-12.058-17.92zM265.523 537.165l1.894-5.299c89.011-227.021 192.486-408.73 244.531-494.336 52.122 85.734 155.75 267.776 244.659 494.925l1.792 4.89c11.29 29.44 17.024 60.749 17.024 93.030 0 145.28-118.144 263.475-263.398 263.475-145.254 0.026-263.45-118.17-263.45-263.45 0-32 5.709-63.386 16.947-93.235zM512.026 529.050c-72.627 0-131.738 59.11-131.738 131.738s59.11 131.738 131.738 131.738 131.738-59.11 131.738-131.738-59.085-131.738-131.738-131.738zM512.026 711.45c-27.93 0-50.662-22.733-50.662-50.662s22.733-50.662 50.662-50.662 50.662 22.733 50.662 50.662-22.707 50.662-50.662 50.662z" />
<glyph unicode="&#xe608;" glyph-name="what" d="M448.128 231.834v57.702c0 56.371 12.749 85.914 42.189 126.694l94.362 129.587c49.152 67.482 66.022 99.942 66.022 147.738 0 80.282-56.218 130.995-136.499 130.995-78.771 0-129.51-47.898-146.304-133.734-1.434-8.576-7.040-12.723-15.59-11.315l-88.576 15.565c-8.55 1.331-12.672 6.989-11.315 15.488 21.146 135.091 118.349 223.846 264.755 223.846 151.91 0 254.669-100.019 254.669-239.334 0-67.61-23.91-116.838-71.731-183.040l-94.438-129.485c-28.032-38.067-36.582-57.702-36.582-105.523v-44.979c0-8.525-5.53-14.054-14.003-14.054h-92.851c-8.576-0.179-14.106 5.402-14.106 13.85zM441.062 96.666c0 8.499 5.632 14.157 14.106 14.157h107.034c8.397 0 14.106-5.658 14.106-14.157v-120.986c0-8.422-5.786-14.080-14.106-14.080h-107.034c-8.474 0-14.106 5.658-14.106 14.080v120.986z" />
<glyph unicode="&#xe609;" glyph-name="category" d="M25.6 488.704c0-247.731 272.896-479.002 647.27-387.046 67.917-42.086 217.958-84.582 323.405-103.808-39.347 78.336-83.046 185.728-80.819 260.634 52.941 63.923 82.944 146.304 82.944 230.221 0 236.544-229.504 409.446-486.4 409.446-255.309 0-486.4-171.648-486.4-409.446zM120.294 488.704c0 173.491 175.744 314.752 391.706 314.752s391.629-141.261 391.629-314.752c0-91.392-39.347-148.838-95.002-205.645 11.315-84.096 38.477-157.338 38.477-157.338s-80.282 21.222-171.469 74.496c-349.056-92.57-555.341 108.826-555.341 288.486z" />
<glyph unicode="&#xe60a;" glyph-name="innovation" d="M597.453 152.218h-171.162c-12.032 0-21.786-9.651-21.786-21.683s9.754-21.811 21.786-21.811h171.162c12.058 0 21.786 9.779 21.786 21.811s-9.728 21.683-21.786 21.683zM593.587 79.949h-163.405c-11.955 0-21.683-9.805-21.683-21.76s9.728-21.734 21.683-21.734h163.405c12.058 0 21.709 9.779 21.709 21.734-0.026 11.955-9.677 21.76-21.709 21.76zM431.309 8.627c42.266-39.117 46.694-47.027 63.539-47.027h32.538c16.486 0 20.506 7.296 65.075 47.027h-161.152zM759.194 529.203c0-147.098-126.49-229.581-126.49-345.626h-57.574c0 143.053 125.466 218.419 125.466 345.626 0 238.029-377.37 238.413-377.37 0 0-127.13 123.187-199.168 126.029-345.626h-58.163c0 116.070-126.49 198.554-126.49 345.626-0.026 316.109 494.592 316.442 494.592 0zM543.155 827.878h-59.136v106.522h59.136v-106.522zM746.368 877.85l-52.173 27.955-52.019-97.075 52.096-27.955 52.096 97.075zM897.715 731.264l-34.483 48.077-94.592-67.814 34.432-48.128 94.643 67.866zM908.186 357.965l-106.547 43.162-22.17-54.861 106.47-43.162 22.246 54.861zM943.565 567.142h-120.653v-59.187h120.653v59.187zM381.824 808.73l-52.019 97.075-52.173-27.955 52.096-97.075 52.096 27.955zM255.462 711.526l-94.694 67.814-34.483-48.077 94.746-67.866 34.432 48.128zM245.658 351.411l-24.294 53.99-106.47-47.821 24.218-53.99 106.547 47.821zM201.139 567.142h-120.704v-59.187h120.73v59.187z" />
<glyph unicode="&#xe60b;" glyph-name="financing" d="M512 934.4c-268.595 0-486.4-217.754-486.4-486.374s217.805-486.426 486.4-486.426 486.4 217.805 486.4 486.426c0 268.621-217.805 486.374-486.4 486.374zM512 32.102c-229.734 0-415.949 186.163-415.949 415.949 0 229.632 186.189 415.872 415.949 415.872 229.658 0 415.846-186.24 415.846-415.872 0-229.786-186.189-415.949-415.846-415.949zM536.576 483.712c-66.816 27.648-95.232 47.616-95.232 87.552 0 30.72 22.272 66.048 81.408 66.048 49.152 0 80.64-16.896 96.768-26.112l18.56 50.662c-22.272 13.056-49.28 25.344-100.48 26.88v66.458h-51.2v-69.53c-76.8-11.494-113.536-59.904-113.536-123.622 0-66.816 49.613-102.144 127.949-132.864 56.832-23.014 87.373-49.152 87.373-91.366 0-43.776-36.557-75.264-91.085-75.264-43.008 0-82.79 14.592-110.438 33.024l-18.125-51.456c26.88-19.2 66.637-33.024 117.837-33.766v-69.555h51.2v71.834c76.8 13.056 119.68 69.862 119.68 130.56 0.026 68.326-41.574 108.262-120.678 140.518z" />
<glyph unicode="&#xe60c;" glyph-name="website" d="M512 934.4c-268.774 0-486.4-217.626-486.4-486.4 0-268.698 217.626-486.4 486.4-486.4 268.698 0 486.4 217.702 486.4 486.4 0 268.774-217.702 486.4-486.4 486.4zM463.309 62.31c-191.898 23.859-340.429 187.238-340.429 385.69 0 29.926 3.661 59.11 10.138 87.066l233.062-232.986v-48.589c0-53.786 43.546-97.28 97.229-97.28v-93.901zM798.746 185.6c-12.442 39.398-48.922 67.891-92.237 67.891h-48.589v145.92c0 26.701-21.939 48.589-48.64 48.589h-291.891v97.28h97.331c26.752 0 48.589 21.888 48.589 48.614v97.28h97.28c53.76 0 97.306 43.597 97.306 97.28v20.224c142.49-57.651 243.2-197.197 243.2-360.678 0.026-101.171-38.861-193.075-102.349-262.4z" />
<glyph unicode="&#xe60d;" glyph-name="masterplan" d="M503.091 540.416c0-4.89 3.994-8.883 8.909-8.883h209.613c4.838 0 8.858 3.994 8.858 8.883v5.606c0 4.838-3.994 8.909-8.858 8.909h-209.613c-4.89 0-8.909-3.994-8.909-8.909v-5.606zM512 598.195h209.613c4.838 0 8.858 4.019 8.858 8.883v5.632c0 4.838-3.994 8.832-8.858 8.832h-209.613c-4.89 0-8.909-3.994-8.909-8.832v-5.632c0-4.864 4.019-8.883 8.909-8.883zM789.197 861.926h-116.787c0.051-0.717 0.128-1.434 0.128-2.202v-64.333h94.541c12.186 0 22.118-9.933 22.118-22.144v-567.706l-177.357-177.434h-354.893c-12.262 0-22.221 10.035-22.221 22.221v722.944c0 12.211 9.984 22.17 22.221 22.17h94.515v64.282c0 0.768 0.077 1.485 0.154 2.202h-116.89c-36.557 0-66.509-29.926-66.509-66.534v-767.309c0-36.557 29.952-66.509 66.509-66.509h554.47c36.634 0 66.586 29.926 66.586 66.509v767.309c0 36.608-29.952 66.534-66.586 66.534zM296.115 475.622c0-4.813 3.994-8.832 8.909-8.832h416.563c4.838 0 8.858 4.019 8.858 8.832v5.658c0 4.838-3.994 8.832-8.858 8.832h-416.563c-4.89 0-8.909-3.994-8.909-8.832v-5.658zM305.024 531.533h138.982c4.838 0 8.909 3.994 8.909 8.883v138.957c0 4.864-4.045 8.883-8.909 8.883h-138.982c-4.89 0-8.909-3.994-8.909-8.883v-138.957c0-4.89 4.019-8.883 8.909-8.883zM634.010 205.542c-5.632 0-11.315-2.176-15.642-6.502s-6.528-10.035-6.528-15.667v-123.878l146.048 146.048h-123.878zM296.115 408.986c0-4.89 3.994-8.883 8.909-8.883h416.563c4.838 0 8.858 3.994 8.858 8.883v5.555c0 4.941-3.994 8.96-8.858 8.96h-416.563c-4.89 0-8.909-3.994-8.909-8.96v-5.555zM721.613 688.256h-209.613c-4.89 0-8.909-3.994-8.909-8.883v-5.606c0-4.838 3.994-8.909 8.909-8.909h209.613c4.838 0 8.858 4.070 8.858 8.909v5.606c-0.026 4.89-4.019 8.883-8.858 8.883zM296.115 342.323c0-4.915 3.994-8.909 8.909-8.909h416.563c4.838 0 8.858 3.994 8.858 8.909v5.555c0 4.915-3.994 8.909-8.858 8.909h-416.563c-4.89 0-8.909-3.994-8.909-8.909v-5.555zM296.115 275.635c0-4.838 3.994-8.883 8.909-8.883h199.373c4.915 0 8.934 4.019 8.934 8.883v5.606c0 4.838-3.994 8.883-8.934 8.883h-199.373c-4.89 0-8.909-4.019-8.909-8.883v-5.606zM382.541 779.904h258.918c2.227 0 4.531 0.896 6.221 2.611 1.741 1.741 2.662 3.994 2.662 6.221v70.989c0 7.936-3.072 15.898-9.165 21.939-6.016 6.067-13.952 9.062-21.862 9.062h-63.744c0 24.141-19.456 43.674-43.571 43.674-24.090 0-43.622-19.533-43.622-43.648h-63.693c-7.936 0-15.846-3.021-21.939-9.062-6.016-6.067-9.088-14.003-9.088-21.939v-70.989c0-2.227 0.922-4.48 2.637-6.221 1.741-1.741 3.968-2.637 6.246-2.637zM512 911.078c11.213 0 20.326-9.062 20.326-20.301 0-11.213-9.114-20.301-20.326-20.301s-20.301 9.114-20.301 20.301c0 11.213 9.088 20.301 20.301 20.301z" />
<glyph unicode="&#xe60e;" glyph-name="pa-plus" d="M96.256 500.915v-247.066h105.882v247.066h-105.882zM308.019 500.915v-247.066h105.882v247.066h-105.882zM25.6 77.389h670.694v105.907h-670.694v-105.907zM519.834 500.915v-247.066h105.882v247.066h-105.882zM360.96 818.611l-335.36-176.486v-70.579h670.694v70.579l-335.334 176.486zM998.4 231.859h-141.286v-141.312h-47.104v141.312h-141.286v47.078h141.286v141.286h47.104v-141.286h141.286v-47.078z" />
<glyph unicode="&#xe60f;" glyph-name="company" d="M998.4 569.958c0 22.118-18.278 40.090-40.576 40.090-11.136 0-21.325-4.429-28.544-11.725l-174.157-149.786v121.421c0 22.118-18.202 40.090-40.499 40.090-11.136 0-21.325-4.429-28.544-11.725l-174.157-149.786v121.421c0 22.118-18.176 40.090-40.499 40.090-11.136 0-21.325-4.429-28.544-11.725l-175.923-151.168-38.733 442.675c0 24.704-19.917 44.57-44.621 44.57h-72.909c-24.704 0-44.57-19.866-44.57-44.57l-40.525-847.155c0-44.8 36.275-81.075 81.024-81.075h810.701c44.774 0 81.075 36.275 81.075 81.075v527.283zM410.624 308.762v-45.85c0-20.864-17.075-37.862-37.965-37.862h-45.747c-20.813 0-37.888 16.998-37.888 37.862v45.85c0 20.813 17.075 37.914 37.888 37.914h45.747c20.915 0 37.965-17.101 37.965-37.914zM653.824 308.762v-45.85c0-20.864-17.075-37.862-37.862-37.862h-45.85c-20.813 0-37.888 16.998-37.888 37.862v45.85c0 20.813 17.075 37.914 37.888 37.914h45.85c20.813 0 37.862-17.101 37.862-37.914zM897.024 308.762v-45.85c0-20.864-17.075-37.862-37.965-37.862h-45.67c-20.89 0-37.965 16.998-37.965 37.862v45.85c0 20.813 17.075 37.914 37.965 37.914h45.67c20.915 0 37.965-17.101 37.965-37.914z" />
<glyph unicode="&#xe610;" glyph-name="non-profit" d="M373.222 215.654c0 29.261-21.658 53.043-48.307 53.043-4.506 0-8.781-0.666-12.928-1.971-8.627 38.144-39.987 66.458-77.389 66.458-43.162 0-78.182-37.683-79.718-84.71l167.373-144.23c29.261 0 69.376 15.718 69.376 43.853 0 15.283-14.694 38.4-20.89 50.867 1.562 5.274 2.483 10.88 2.483 16.691zM987.802 692.429l-101.427 106.88c-12.979 13.568-32.102 18.867-52.48 16.461-20.454-2.458-42.24-12.595-60.442-29.952l-41.114-33.792-41.062-33.843c-23.936-27.622-141.978 22.17-191.462 29.414-84.070 12.39-217.139-44.186-206.106-125.158 6.938-51.098 202.419 3.686 202.419 3.686 12.902-13.619 228.25-176.691 275.891-242.202 14.438-15.718 25.984-21.888 44.186-4.48 0 0 19.507 23.987 57.446 65.638 37.888 41.754 79.642 93.798 95.002 135.424 8.704 23.578 19.994 44.826 25.856 63.514 5.862 18.662 6.246 34.893-6.707 48.41zM761.754 361.933c0 0-38.758 40.883-97.459 95.744-79.872 69.222-176.768 136.038-185.421 145.101 0 0-200.448-48.768-207.565 3.686-5.555 40.269 8.858 82.022 50.304 105.293-69.632 34.432-118.221 40.704-161.766 13.619-69.862-43.315-185.728-135.885-108.928-261.965 23.117-37.837 75.674-90.061 135.040-142.413 14.899 16.742 35.661 27.187 58.752 27.187 38.63 0 70.938-29.261 79.923-68.685 4.275 1.331 8.678 2.048 13.338 2.048 27.52 0 49.843-24.499 49.843-54.784 0-6.016-0.947-11.827-2.586-17.254 6.451-12.902 21.658-36.787 21.658-52.557 0-4.301-1.024-8.32-2.662-12.032 22.758-17.254 36.813-27.392 36.813-27.392 23.987-21.504 73.421-55.424 150.298-27.008l-76.8 65.664c-37.581 32.102-65.203 61.466-62.413 64.717l13.542 15.846c2.816 3.328 35.533-20.122 73.062-52.224l89.549-76.518c4.198 2.458 8.448 4.992 12.8 7.808l34.509 29.261-135.885 127.334c-36.019 33.843-62.31 64.41-59.315 67.558l14.208 15.206c2.944 3.098 34.56-21.734 70.63-55.475l139.008-130.355 57.318 48.563c-2.125 1.997-4.25 3.968-6.4 5.939l-163.2 152.986c-36.070 33.766-62.31 64.41-59.341 67.584l14.208 15.155c2.944 3.123 34.56-21.734 70.605-55.501l163.2-152.986c2.458-2.304 4.813-4.582 7.168-6.81 21.171 33.254 14.003 76.083-17.971 109.773-2.637 2.176-5.325 4.864-8.064 7.885z" />
<glyph unicode="&#xe611;" glyph-name="social" d="M512 448c134.349 0 243.2 109.082 243.2 243.2 0 134.298-108.851 243.2-243.2 243.2s-243.2-108.902-243.2-243.2c0-134.118 108.851-243.2 243.2-243.2zM512 326.4c-162.048 0-486.4-81.178-486.4-243.2v-121.6h972.8v121.6c0 162.022-324.352 243.2-486.4 243.2z" />
<glyph unicode="&#xe612;" glyph-name="enviroment" d="M974.669 165.069c-121.011 18.458-130.304 36.224-130.304 36.224 24.986 149.581-52.275 339.021-178.355 441.651-167.834 136.499-423.040 37.376-621.696 244.838-46.387 48.41-19.405-542.848 229.376-766.925 181.837-163.712 396.032-113.459 454.758-86.733 53.248 24.474 90.65 68.992 90.65 68.992 96.947-30.003 144.922-28.134 144.922-28.134 34.125-4.147 51.456 83.917 10.65 90.086zM753.126 154.931c-318.592 94.285-558.029 425.37-558.029 425.37s210.176-248.346 580.813-369.382c0.486-18.56-10.547-45.363-22.784-55.987z" />
<glyph unicode="&#xe613;" glyph-name="economy" d="M650.931 725.939l134.221-134.221-203.008-213.222-232.346 231.68-324.198-440.115 324.198 277.939 232.346-243.2 284.211 305.741 132.045-132.045v347.443z" />
<glyph unicode="&#xe614;" glyph-name="price" d="M280.678 797.312c-0.358-1.050-0.717-2.022-1.050-3.174 9.677-9.702 72.602-116.224 87.117-140.416 9.139-15.206 39.27-46.592 71.219-51.533 15.206-2.739 30.822-26.189 44.979-26.189 4.813 0 4.813 0 9.702 0 43.546 0 111.36 41.216 106.47 75.162-4.813 62.899 58.138 156.211 67.814 165.888 14.515 19.379 9.651 68.864-29.056 68.864-9.702 0-19.379 2.534-29.082-2.278-9.702-4.864-24.166-8.474-38.758-8.474-9.651 0-19.354 5.453-24.166 15.155-29.082 38.733-53.248 43.93-72.653 43.93-24.192 0-48.384-4.71-72.602-43.418-19.354-33.92-48.435-33.843-92.006-33.843-38.733 0-48.435-29.030-29.030-58.061 0.333-0.435 0.742-1.101 1.101-1.613zM473.242 823.142c14.515-19.379 33.92-29.030 53.274-38.733-5.606-14.054-9.523-26.394-12.851-38.118-18.97 12.544-26.061 42.957-45.261 42.957-24.013 0-28.979-33.306-47.974-38.554-1.997 3.43-3.84 6.682-5.274 9.498 0 4.864-4.813 9.702-4.813 9.702 19.354 9.702 43.546 29.056 62.899 53.248zM589.466 589.901c-33.894-14.464-72.653-39.501-96.819-39.501h-9.702c-9.702 0-53.248 15.309-92.006 29.85-208.128-62.95-363.085-268.211-363.085-418.33 0-179.149 217.856-199.552 484.147-199.552s484.147 18.458 484.147 197.581c0 159.77-174.285 381.594-406.682 429.952zM537.6 55.885v-68.685h-25.6v66.816c-25.6 0.614-83.226 11.725-104.755 27.11l9.498 41.318c22.195-14.797 51.686-26.522 86.144-26.522 43.776 0 72.013 25.293 72.013 60.416 0 33.869-24.678 54.861-70.272 73.318-62.874 24.653-93.696 52.992-93.696 106.598 0 51.174 24.243 90.010 101.043 99.251v38.093h25.6v-35.61c51.2-1.254 60.237-11.11 78.131-21.581l-16.435-40.704c-12.954 7.424-38.707 20.966-78.157 20.966-47.462 0-65.587-28.365-65.587-52.992 0-32.077 22.656-48.077 76.262-70.272 63.514-25.856 99.328-57.907 99.328-112.742 0.026-48.691-16.717-94.31-93.517-104.781z" />
<glyph unicode="&#xe615;" glyph-name="pa" d="M164.557 517.504v-324.275h138.982v324.275h-138.982zM442.522 517.504v-324.275h138.957v324.275h-138.957zM71.962-38.4h880.102v138.982h-880.102v-138.982zM720.461 517.504v-324.275h138.982v324.275h-138.982zM512 934.4l-440.038-231.629v-92.646h880.102v92.646l-440.064 231.629z" />
<glyph unicode="&#xe616;" glyph-name="city-user" d="M313.395 100.582v208.486h69.504v277.914c0 38.195-31.258 69.478-69.504 69.478h-208.41c-38.195 0-69.504-31.283-69.504-69.478v-277.914h69.504v-347.469h204.902zM209.203 725.939c57.677 0 104.192 46.541 104.192 104.243 0 57.677-46.515 104.218-104.192 104.218-57.651 0-104.218-46.541-104.218-104.218 0-57.702 46.566-104.243 104.218-104.243zM988.518 380.749l-58.47 58.496-269.235-269.158-116.89 116.915-58.496-58.496 175.386-175.386z" />
<glyph unicode="&#xe617;" glyph-name="citizen" d="M215.398 210.714v142.387h47.462v189.824c0 26.086-21.325 47.437-47.462 47.437h-142.362c-26.061 0-47.437-21.35-47.437-47.437v-189.824h47.437v-237.261h139.955zM144.23 637.824c39.398 0 71.168 31.795 71.168 71.168s-31.795 71.168-71.168 71.168c-39.373 0-71.194-31.795-71.194-71.168s31.821-71.168 71.194-71.168zM571.341 210.714v142.387h47.437v189.824c0 26.086-21.325 47.437-47.437 47.437h-142.387c-26.086 0-47.411-21.35-47.411-47.437v-189.824h47.411v-237.261h139.93zM500.122 637.824c39.398 0 71.219 31.795 71.219 71.168s-31.821 71.168-71.219 71.168-71.168-31.795-71.168-71.168 31.795-71.168 71.168-71.168zM950.963 210.714v142.387h47.437v189.824c0 26.086-21.325 47.437-47.437 47.437h-142.387c-26.086 0-47.437-21.35-47.437-47.437v-189.824h47.437v-237.261h139.93zM879.77 637.824c39.398 0 71.219 31.795 71.219 71.168s-31.821 71.168-71.219 71.168c-39.373 0-71.168-31.795-71.168-71.168s31.795-71.168 71.168-71.168z" />
<glyph unicode="&#xe618;" glyph-name="territory-radius" d="M607.846 16.486c-42.266-9.626-86.579-13.030-130.176-10.010-10.803 0.717-20.224-7.424-20.992-18.253-0.742-10.829 7.424-20.25 18.253-20.992 11.264-0.794 22.733-1.178 34.074-1.178 36.301 0 72.499 4.070 107.597 12.058 10.573 2.406 17.229 12.954 14.797 23.552s-12.979 17.254-23.552 14.822zM410.906 16.307c-42.624 9.626-83.558 25.6-121.574 47.36-9.421 5.376-21.453 2.125-26.829-7.296-5.427-9.446-2.15-21.453 7.27-26.854 41.421-23.731 85.99-41.062 132.454-51.584 1.485-0.333 2.918-0.512 4.352-0.512 9.011 0 17.101 6.195 19.2 15.36 2.381 10.573-4.25 21.12-14.874 23.526zM785.101 102.093c-34.278-27.418-72.243-49.485-112.845-65.587-10.112-4.019-15.027-15.462-11.008-25.549 3.021-7.706 10.445-12.416 18.278-12.416 2.432 0 4.864 0.461 7.245 1.382 44.237 17.562 85.555 41.6 122.906 71.424 8.474 6.784 9.856 19.174 3.072 27.648-6.81 8.499-19.149 9.856-27.648 3.098zM233.472 101.581c-34.253 27.29-64.256 59.392-89.088 95.437-6.17 8.934-18.432 11.187-27.366 5.018s-11.213-18.432-4.992-27.366c27.059-39.219 59.674-74.163 96.973-103.859 3.635-2.893 7.936-4.275 12.237-4.275 5.786 0 11.52 2.534 15.411 7.424 6.733 8.474 5.325 20.864-3.174 27.622zM934.144 265.216c-9.754 4.736-21.53 0.614-26.24-9.165-18.97-39.398-43.674-75.699-73.395-107.955-7.373-7.987-6.886-20.429 1.101-27.776 3.789-3.507 8.576-5.222 13.338-5.222 5.299 0 10.598 2.125 14.438 6.349 32.384 35.123 59.264 74.65 79.923 117.504 4.762 9.779 0.64 21.555-9.165 26.266zM110.413 255.283c-19.098 39.398-32.179 81.28-38.861 124.544-1.638 10.726-11.674 18.074-22.426 16.435s-18.099-11.699-16.461-22.451c7.296-47.104 21.53-92.774 42.291-135.706 3.405-7.014 10.419-11.11 17.715-11.11 2.867 0 5.811 0.64 8.55 1.971 9.856 4.762 13.926 16.538 9.19 26.317zM971.238 448c-0.051 0-0.077 0-0.128 0-10.854 0 1.69 12.518 1.69 1.664v-1.664c0-43.981-17.024-87.424-29.722-129.101-3.174-10.394-3.251-21.376 7.142-24.55 1.894-0.589 1.536-0.845 3.43-0.845 8.397 0 18.765 5.453 21.35 13.926 13.824 45.414 23.398 92.698 23.398 140.57v1.92c0 10.829-16.333-1.92-27.162-1.92zM51.2 447.13v0.87c0 43.699 13.773 86.861 26.266 128.282 3.149 10.394 1.229 21.376-9.165 24.525s-19.994-2.714-23.142-13.133c-13.67-45.107-19.558-92.109-19.558-139.674v-0.896c0-10.88 1.946-19.686 12.8-19.686 10.88 0.026 12.8 8.832 12.8 19.712zM916.25 667.802c-9.779-4.762-13.824-16.538-9.062-26.291 19.149-39.347 32.307-81.229 39.066-124.493 1.536-9.702 9.882-16.614 19.405-16.614 1.024 0 2.048 0.077 3.072 0.23 10.726 1.664 18.074 11.725 16.384 22.477-7.347 47.104-21.683 92.749-42.547 135.629-4.787 9.754-16.538 13.824-26.317 9.062zM83.456 629.99c2.714-1.306 5.632-1.946 8.474-1.946 7.322 0 14.387 4.122 17.741 11.162 18.918 39.398 43.546 75.776 73.216 108.083 7.347 8.013 6.835 20.454-1.178 27.802-8.013 7.322-20.429 6.81-27.802-1.203-32.307-35.174-59.11-74.752-79.693-117.658-4.685-9.805-0.563-21.555 9.242-26.24zM219.878 789.094c4.326 0 8.678 1.408 12.288 4.326 34.227 27.469 72.141 49.613 112.717 65.818 10.112 4.019 15.002 15.462 10.982 25.574s-15.462 14.976-25.549 10.982c-44.211-17.638-85.504-41.754-122.778-71.654-8.448-6.81-9.83-19.174-3.021-27.674 3.891-4.864 9.574-7.373 15.36-7.373zM606.208 879.923c42.701-9.574 83.635-25.421 121.677-47.13 3.098-1.766 6.426-2.586 9.728-2.586 6.861 0 13.466 3.558 17.126 9.933 5.376 9.446 2.099 21.453-7.347 26.829-41.472 23.654-86.067 40.909-132.557 51.328-10.598 2.381-21.12-4.275-23.501-14.899-2.406-10.598 4.275-21.12 14.874-23.475zM404.838 878.848c1.485 0 2.944 0.154 4.454 0.512 42.291 9.728 86.81 13.21 130.125 10.24 10.931-0.768 20.224 7.475 20.966 18.278 0.717 10.854-7.45 20.25-18.304 20.966-47.181 3.2-95.565-0.538-141.619-11.162-10.598-2.432-17.203-12.979-14.771-23.578 2.099-9.088 10.214-15.258 19.149-15.258zM843.776 663.859c54.912-2.944 94.746 45.466 99.123 95.949 0.256 1.075 0.435 2.202 0.358 3.507 0.077 1.306-0.102 2.458-0.358 3.533-10.138 124.493-191.744 123.366-198.579-3.533-3.021-56.166 47.693-96.666 99.456-99.456zM843.776 839.194c42.931 2.304 73.728-36.301 75.878-75.853-5.248-97.766-146.483-97.766-151.731 0-2.304 42.906 36.326 73.728 75.853 75.853zM614.246 457.626c0 21.734-6.81 41.856-18.33 58.47 23.987 22.042 47.923 44.083 71.91 66.125l42.573-42.598 40.602 151.578-151.578-40.602 49.613-49.613c-23.629-21.734-47.283-43.494-70.938-65.229-17.92 15.309-41.139 24.602-66.586 24.602-56.755 0-102.733-45.978-102.733-102.733 0-56.73 45.978-102.733 102.733-102.733 56.73 0.026 102.733 46.029 102.733 102.733z" />
<glyph unicode="&#xe619;" glyph-name="cat_energy" d="M506.061 951.526c-158.899-3.405-285.082-130.688-281.805-284.442 0.23-11.034 1.126-21.786 2.714-32.563 1.613-12.109 4.122-23.731 7.501-35.149 0.256-1.101 0.717-2.458 0.998-3.558 40.32-140.39 105.242-158.541 140.416-373.939 0.026-0.461 0.256-0.896 0.256-1.101 3.814-20.608 22.605-27.187 45.082-26.701l202.086 4.301c22.502 0.486 40.781 7.859 43.725 28.595 0 0.461 0.205 0.896 0.205 1.101 25.958 216.678 90.061 237.414 124.365 379.571 0.435 1.152 0.64 2.278 0.819 3.635 2.662 11.52 4.685 23.475 5.99 35.405 1.126 10.624 1.587 21.632 1.331 32.64-3.277 153.805-134.733 275.584-293.683 272.205zM662.451 135.091c0.179 0.461 0.64 0.922 0.87 1.382 2.381 3.866 3.635 8.166 3.558 12.877-0.154 7.859 3.277 14.003-14.925 13.619l-258.074-5.478c-18.202-0.384-14.49-5.043-14.31-14.259 0.077-4.736 1.536-8.986 4.096-12.749 0.23-0.435 0.691-0.87 1.152-1.331 0-0.205 0.205-0.205 0.23-0.435 3.942-5.786 6.272-9.779 6.426-16.947 0.154-6.989-1.792-11.085-5.478-16.998-0.64-0.922-1.075-1.587-1.536-2.278-2.15-3.866-3.43-8.166-3.328-12.672 0.077-4.71 1.536-8.986 4.096-12.954 0.256-0.435 0.691-0.87 0.947-1.306 4.173-6.016 6.502-10.010 6.656-17.434 0.154-6.963-1.792-11.034-5.478-16.742-0.435-0.922-1.101-1.613-1.741-2.509-2.176-3.866-3.43-8.166-3.328-12.672 0.256-12.134 10.138-22.477 23.475-25.574 0.666-0.23 1.357-0.205 2.022-0.435 13.568-2.867 27.494-2.995 41.702-4.736 1.587-0.179 3.149-0.384 4.966-0.563 12.646-1.997 23.347-8.269 30.49-16.666v0c8.781-11.725 24.806-24.218 42.778-23.859 17.075 0.384 31.898 12.851 40.422 24.269v0c6.554 9.6 17.638 16.819 30.848 19.533 1.587 0.282 3.149 0.742 4.941 0.794 14.106 2.304 28.032 3.072 41.446 6.502 0.666 0.23 1.357 0.256 2.022 0.512 13.184 3.866 22.63 14.413 22.374 26.573-0.102 4.48-1.562 8.73-3.866 12.518-0.691 0.87-1.152 1.562-1.843 2.432-3.738 5.786-6.067 9.549-6.221 16.512-0.154 7.194 2.022 11.494 5.914 17.664 0.205 0.435 0.64 0.922 0.87 1.357 2.381 3.866 3.661 8.397 3.533 13.133-0.102 4.48-1.536 8.73-3.866 12.493-0.691 0.666-1.152 1.562-1.613 2.227-3.712 5.786-6.067 9.549-6.221 16.742-0.128 7.194 2.022 11.29 5.709 17.203 0.051-0.205 0.051 0.026 0.282 0.256z" />
<glyph unicode="&#xe61a;" glyph-name="cat_environment" d="M92.595 163.84c59.955 84.736 76.928 84.966 76.928 84.966 103.962-75.725 276.941-89.139 402.637-32.563 167.194 75.341 189.030 306.483 421.811 378.291 54.323 16.717-404.173 220.928-668.544 117.53-193.178-75.674-236.442-257.126-238.515-311.834-1.715-49.638 17.818-94.899 17.818-94.899-59.597-62.182-76.416-99.226-76.416-99.226-16.102-24.269 44.058-70.835 64.282-42.266zM169.088 335.616c192.512 205.696 534.477 261.453 534.477 261.453s-268.109-65.024-500.685-300.032c-14.336 6.758-30.387 25.318-33.792 38.579z" />
<glyph unicode="&#xe61b;" glyph-name="cat_economy" d="M441.293 934.4l-0.896-104.883c-42.445 0.384-233.805-52.045-235.29-225.331-1.331-154.189 136.038-197.35 231.398-211.968l-1.382-174.234c-69.53 20.531-81.766 74.266-91.059 118.656l-153.062 1.331c7.962-173.44 159.565-255.462 242.816-268.442l-0.922-106.675 145.51-1.254 0.896 105.088c115.226 5.094 252.493 103.398 253.67 239.718 1.357 156.109-134.144 201.6-249.754 214.502l1.382 159.718c45.517-3.635 80.614-49.075 84.070-95.104l151.552-1.306c1.331 154.88-138.854 237.568-235.878 244.070l0.896 104.858-143.949 1.254zM439.91 680.397l-1.152-132.403c-102.554 2.483-103.578 114.944 1.152 132.403zM583.603 366.029c126.899-4.301 139.853-131.098-1.51-150.144l1.51 150.144z" />
<glyph unicode="&#xe61c;" glyph-name="cat_mobility" d="M998.4 448c0 84.685-21.709 164.147-59.494 233.421 35.84 25.216 59.494 66.893 59.494 114.022 0 76.646-62.31 138.957-138.982 138.957-47.104 0-88.806-23.654-113.997-59.494-69.248 37.786-148.736 59.494-233.421 59.494-268.595 0-486.4-217.779-486.4-486.4s217.805-486.4 486.4-486.4c268.621 0 486.4 217.805 486.4 486.4zM859.418 864.922c38.451 0 69.504-31.053 69.504-69.478 0-22.81-10.854-43.008-27.802-55.578-27.571 36.915-60.365 69.734-97.28 97.28 12.595 16.922 32.794 27.776 55.578 27.776zM217.114 153.114c-78.592 78.822-122.035 183.501-122.035 294.886s43.443 216.064 122.035 294.912c78.848 78.592 183.501 122.010 294.886 122.010 111.411 0 216.064-43.418 294.886-122.035 78.618-78.848 122.035-183.501 122.035-294.886s-43.418-216.064-122.035-294.886c-78.822-78.592-183.475-122.035-294.886-122.035-111.386 0-216.038 43.443-294.886 122.035zM789.965 239.565c0 0-181.76 220.621-225.843 260.557-44.083 39.962-330.061 156.339-330.061 156.339s178.714-222.362 225.818-260.557c47.13-38.221 330.086-156.339 330.086-156.339z" />
<glyph unicode="&#xe61d;" glyph-name="cat_government" d="M1002.394 561.485l-470.656 367.488c-4.275 3.379-9.677 5.402-15.59 5.427s-11.315-1.971-15.642-5.299l-473.856-363.341c-8.448-6.477-12.262-17.818-8.704-28.416 3.635-10.624 13.491-17.357 24.090-17.408l944.563-4.147c10.573-0.026 20.557 6.63 24.218 17.178 3.661 10.624-0.026 21.965-8.422 28.518zM309.837 635.648l205.696 157.747 204.314-159.539-410.010 1.792zM329.549 147.226l-25.677 0.128 1.152 270.259c18.611-0.051 33.869 15.027 33.971 33.638 0.077 18.586-15.104 33.818-33.638 33.92l-130.867 0.589c-18.586 0.026-33.869-15.078-33.946-33.664-0.102-18.586 15.053-33.818 33.613-33.92l-1.178-270.259-25.651 0.102c-4.48 0-8.141-3.61-8.166-8.038l-0.077-16.205c0-4.454 3.635-8.166 8.115-8.166l182.221-0.794c4.454 0 8.090 3.635 8.115 8.090l0.077 16.205c0.026 4.454-3.635 8.115-8.064 8.115zM603.827 146.048l-25.677 0.102 1.178 270.285c18.586-0.102 33.843 15.027 33.946 33.613 0.077 18.586-15.078 33.869-33.613 33.92l-130.893 0.563c-18.611 0.102-33.869-15.027-33.92-33.587-0.128-18.611 15.053-33.843 33.587-33.92l-1.152-270.336-25.677 0.128c-4.454 0.026-8.141-3.635-8.141-8.064l-0.077-16.205c-0.026-4.454 3.61-8.115 8.064-8.115l182.246-0.845c4.454 0 8.090 3.661 8.115 8.115l0.077 16.205c0.026 4.48-3.61 8.141-8.064 8.141zM878.106 144.845l-25.677 0.128 1.152 270.259c18.637-0.077 33.894 15.053 33.971 33.638 0.051 18.56-15.053 33.843-33.664 33.92l-130.842 0.563c-18.56 0.077-33.843-15.027-33.92-33.638-0.102-18.611 15.078-33.843 33.587-33.92l-1.178-270.259-25.677 0.102c-4.429 0.026-8.090-3.635-8.115-8.038l-0.077-16.205c0-4.506 3.635-8.141 8.064-8.166l182.221-0.794c4.48-0.026 8.141 3.61 8.166 8.090l0.051 16.205c0.026 4.454-3.584 8.115-8.064 8.115zM929.536 20.378l0.154 41.728c0.051 4.275-1.587 8.55-4.838 11.802-3.2 3.277-7.475 4.915-11.75 4.915l-801.28 3.507c-4.275 0.026-8.576-1.562-11.853-4.813-3.251-3.251-4.915-7.501-4.915-11.776l-0.179-41.728-66.816 0.307c-4.275 0-8.55-1.613-11.827-4.813-3.277-3.302-4.941-7.526-4.966-11.827l-0.179-41.702 1001.651-4.378 0.179 41.702c0 4.275-1.587 8.525-4.838 11.853-3.226 3.226-7.501 4.915-11.75 4.941l-66.79 0.282z" />
<glyph unicode="&#xe61e;" glyph-name="cat_living" d="M736.486 830.182c-85.606 0-178.509-38.221-224.486-114.662-45.978 76.442-138.906 114.662-224.512 114.662-149.76 0-261.888-93.901-261.888-251.443 0-67.891 27.264-156.16 88.858-229.402s98.227-112.282 217.472-191.104c119.27-78.822 180.070-92.416 180.070-92.416s60.774 13.594 180.045 92.416 155.904 117.862 217.472 191.104 88.883 161.51 88.883 229.402c0 157.542-112.154 251.443-261.914 251.443z" />
<glyph unicode="&#xe61f;" glyph-name="cat_planning" d="M187.725 448l324.275 324.275 97.28-97.28v259.405h-259.405l97.28-97.28-389.12-389.12 194.56-194.56 64.87 64.87-129.741 129.69zM836.275 448l-324.275-324.25-97.28 97.254v-259.405h259.405l-97.28 97.28 389.12 389.12-194.56 194.56-64.845-64.87 129.715-129.69z" />
<glyph unicode="&#xe620;" glyph-name="cat_people" d="M512 448c134.349 0 243.2 109.082 243.2 243.2 0 134.298-108.851 243.2-243.2 243.2s-243.2-108.902-243.2-243.2c0-134.118 108.851-243.2 243.2-243.2zM512 326.4c-162.048 0-486.4-81.178-486.4-243.2v-121.6h972.8v121.6c0 162.022-324.352 243.2-486.4 243.2z" />
<glyph unicode="&#xe800;" glyph-name="other" d="M0 448c0 282.77 229.23 512 512 512s512-229.23 512-512c0-282.77-229.23-512-512-512s-512 229.23-512 512zM977.455 448c0 257.063-208.391 465.455-465.455 465.455s-465.455-208.391-465.455-465.455c0-257.063 208.391-465.455 465.455-465.455s465.455 208.391 465.455 465.455zM791.273 354.909c51.413 0 93.091 41.678 93.091 93.091s-41.678 93.091-93.091 93.091c-51.413 0-93.091-41.678-93.091-93.091s41.678-93.091 93.091-93.091zM512 354.909c51.413 0 93.091 41.678 93.091 93.091s-41.678 93.091-93.091 93.091c-51.413 0-93.091-41.678-93.091-93.091s41.678-93.091 93.091-93.091zM232.727 354.909c51.413 0 93.091 41.678 93.091 93.091s-41.678 93.091-93.091 93.091c-51.413 0-93.091-41.678-93.091-93.091s41.678-93.091 93.091-93.091z" />
</font>
</defs>
</svg>
